<?xml version="1.0" encoding="UTF-8" standalone="no"?>
<!-- Generator: Adobe Illustrator 19.0.0, SVG Export Plug-In . SVG Version: 6.00 Build 0)  -->

<svg
   xmlns:dc="http://purl.org/dc/elements/1.1/"
   xmlns:cc="http://creativecommons.org/ns#"
   xmlns:rdf="http://www.w3.org/1999/02/22-rdf-syntax-ns#"
   xmlns:svg="http://www.w3.org/2000/svg"
   xmlns="http://www.w3.org/2000/svg"
   xmlns:sodipodi="http://sodipodi.sourceforge.net/DTD/sodipodi-0.dtd"
   xmlns:inkscape="http://www.inkscape.org/namespaces/inkscape"
   version="1.1"
   id="Layer_1"
   x="0px"
   y="0px"
   viewBox="0 0 512 512"
   style="enable-background:new 0 0 512 512;"
   xml:space="preserve"
   inkscape:version="0.91 r13725"
   sodipodi:docname="who_What_IDontknow.svg"><metadata
     id="metadata3568"><rdf:RDF><cc:Work
         rdf:about=""><dc:format>image/svg+xml</dc:format><dc:type
           rdf:resource="http://purl.org/dc/dcmitype/StillImage" /><dc:title></dc:title></cc:Work></rdf:RDF></metadata><defs
     id="defs3566" /><sodipodi:namedview
     pagecolor="#ffffff"
     bordercolor="#666666"
     borderopacity="1"
     objecttolerance="10"
     gridtolerance="10"
     guidetolerance="10"
     inkscape:pageopacity="0"
     inkscape:pageshadow="2"
     inkscape:window-width="1366"
     inkscape:window-height="681"
     id="namedview3564"
     showgrid="false"
     inkscape:zoom="0.4609375"
     inkscape:cx="256"
     inkscape:cy="256"
     inkscape:window-x="0"
     inkscape:window-y="924"
     inkscape:window-maximized="1"
     inkscape:current-layer="Layer_1" /><g
     id="g3522"><g
       id="g3524"><path
         d="M255.999,213.519c-20.084,0-36.425,16.34-36.425,36.426c0,20.084,16.341,36.425,36.425,36.425    c20.085,0,36.425-16.34,36.425-36.425C292.423,229.859,276.083,213.519,255.999,213.519z"
         id="path3526" /></g></g><g
     id="g3528"><g
       id="g3530"><path
         d="M506.078,144.208c-139.75-134.626-360.593-134.446-500.157,0c-7.69,7.408-7.919,19.645-0.513,27.336    c10.072,10.457,183.827,190.874,193.735,201.162c-22.796,41.543,5.826,95.988,56.857,95.988c51.032,0,79.65-54.447,56.857-95.987    c23.384-24.281,173.707-180.363,193.735-201.163C513.999,163.853,513.768,151.614,506.078,144.208z M280.141,413.709    c-1.544,3.828-7.848,16.316-24.142,16.316c-16.294,0-22.599-12.494-24.143-16.323c-7.776-19.274,7.582-36.034,24.141-36.034    C272.521,377.667,287.934,394.38,280.141,413.709z M285.034,345.848c-18.194-9.188-39.896-9.17-58.073,0l-89.115-92.53    l118.152-118.151l118.15,118.149C351.545,276.786,306.393,323.67,285.034,345.848z"
         id="path3532" /></g></g><g
     id="g3534" /><g
     id="g3536" /><g
     id="g3538" /><g
     id="g3540" /><g
     id="g3542" /><g
     id="g3544" /><g
     id="g3546" /><g
     id="g3548" /><g
     id="g3550" /><g
     id="g3552" /><g
     id="g3554" /><g
     id="g3556" /><g
     id="g3558" /><g
     id="g3560" /><g
     id="g3562" /><rect
     style="fill:#00ff00"
     id="rect3589"
     width="34.711864"
     height="34.711864"
     x="240.86647"
     y="-120.60359"
     inkscape:transform-center-x="35.283423"
     inkscape:transform-center-y="148.80403"
     transform="matrix(0.70710678,0.70710678,-0.70710678,0.70710678,0,0)" /><rect
     style="fill:#00ff00"
     id="rect3589-3"
     width="34.711864"
     height="34.711864"
     x="243.19493"
     y="80.824043"
     inkscape:transform-center-x="35.283423"
     inkscape:transform-center-y="148.80403"
     transform="matrix(0.70710678,0.70710678,-0.70710678,0.70710678,0,0)" /><rect
     style="fill:#00ff00"
     id="rect3589-3-6"
     width="34.711864"
     height="34.711864"
     x="442.74289"
     y="-118.96356"
     inkscape:transform-center-x="35.283423"
     inkscape:transform-center-y="148.80403"
     transform="matrix(0.70710678,0.70710678,-0.70710678,0.70710678,0,0)" /></svg>